<svg xmlns="http://www.w3.org/2000/svg" viewBox="0 0 400 45">
  <defs>
    <linearGradient id="grad" x1="-90.564926" y1="144.26019" x2="304.5275" y2="144.26019" gradientUnits="userSpaceOnUse">
      <stop offset="0" stop-color="#e63946"/>
      <stop offset="0.2" stop-color="#f4a261"/>
      <stop offset="0.4" stop-color="#e9c46a"/>
      <stop offset="0.6" stop-color="#52b788"/>
      <stop offset="0.8" stop-color="#4895ef"/>
      <stop offset="1" stop-color="#7b2d8b"/>
    </linearGradient>
  </defs>
  <g transform="translate(90.564926,-121.97292)">
    <path fill="url(#grad)" fill-rule="evenodd" d="m 231.27113,165.83418 c -2.99687,0 -5.73644,-0.66597 -8.2187,-1.99792 -2.48226,-1.33195 -4.44991,-3.19364 -5.90294,-5.58508 -1.42276,-2.42172 -2.13414,-5.19156 -2.13414,-8.30952 0,-3.23905 0.69624,-6.14511 2.08873,-8.71818 1.42276,-2.60335 3.40554,-4.63154 5.94835,-6.08457 2.5428,-1.45303 5.44886,-2.17954 8.71818,-2.17954 1.9071,0 3.92015,0.36326 6.03916,1.08977 2.119,0.69624 3.8142,1.46816 5.0856,2.31577 v 6.44782 h -0.36325 c -1.18059,-2.45199 -2.76984,-4.38937 -4.76776,-5.81212 -1.99791,-1.45303 -2.84547,-1.76124 -4.84339,-1.76124 -1.9071,0 -2.89226,0.17198 -4.34529,1.35257 -1.42276,1.18059 -2.52767,2.84552 -3.31472,4.99479 -0.78706,2.11901 -1.18059,4.571 -1.18059,7.35597 0,4.38936 0.26416,8.08111 1.83828,10.86609 1.60438,2.78497 2.35972,3.54999 5.85196,4.07288 2.27527,0.34067 4.32882,-0.90814 6.08457,-2.72443 v -5.0402 c 0,-1.54385 -0.13622,-2.81525 -0.40867,-3.81421 -0.27244,-1.02923 -0.72651,-1.84656 -1.36222,-2.45199 v -0.36325 h 9.17226 v 0.36325 c -0.36326,0.48435 -0.65084,1.28654 -0.86274,2.40659 -0.2119,1.08977 -0.31785,2.3763 -0.31785,3.85961 v 4.31368 c -1.15031,1.42276 -2.84551,2.67903 -5.0856,3.7688 -2.20982,1.08977 -4.7829,1.63466 -7.71923,1.63466 z M -26.998097,144.2797 q 0,-2.6746 -0.621993,-4.4784 -0.559805,-1.866 -1.554998,-2.7368 v -0.4354 l 10.636186,-3.85639 h 0.248804 v 6.84199 q 4.167388,-6.34439 9.392189,-6.34439 1.430602,0 2.4257951,0.1866 v 7.15299 h -0.4975965 q -2.5502023,-1.1818 -5.2248006,-1.1818 -1.679395,0 -3.35879,0.622 -1.617197,0.5598 -2.736797,1.4928 v 16.91838 q 0,5.1004 1.4928,6.5932 v 0.4976 h -11.693599 v -0.4976 q 1.4928,-1.4928 1.4928,-6.5932 z m 25.5408108,0 q 0,-2.6746 -0.6220036,-4.4784 -0.5597949,-1.866 -1.5549986,-2.7368 v -0.4354 l 10.6361968,-3.85639 h 0.248793 v 5.90899 q 1.9903968,-2.5502 4.9137996,-3.98079 2.923391,-1.4928 6.157795,-1.4928 6.593195,0 8.023786,5.84679 2.052606,-2.7368 5.100405,-4.29179 3.109997,-1.555 6.406588,-1.555 4.291796,0 6.4066,2.488 2.176992,2.42579 2.176992,7.21519 v 15.54998 q 0,5.1004 1.4928,6.5932 v 0.4976 H 36.235879 v -0.4976 q 1.4928,-1.4928 1.4928,-6.5932 V 144.0931 q 0,-3.1722 -1.181798,-4.4784 -1.181799,-1.3062 -3.607605,-1.3062 -1.865989,0 -3.545395,0.622 -1.679395,0.622 -2.674599,1.8038 0.124407,1.244 0.124407,2.177 v 15.54998 q 0,5.1004 1.492801,6.5932 v 0.4976 H 16.642891 v -0.4976 q 1.4928,-1.4928 1.4928,-6.5932 V 144.0931 q 0,-3.1722 -1.181798,-4.4784 -1.181799,-1.3062 -3.669792,-1.3062 -1.803802,0 -3.4209991,0.622 -1.6171968,0.5598 -2.6124005,1.7416 v 17.78918 q 0,5.1004 1.4928003,6.5932 v 0.4976 H -2.9500865 v -0.4976 q 1.4928003,-1.4928 1.4928003,-6.5932 z M 58.791131,127.92111 v 30.54017 q 0,5.1004 1.4928,6.5932 v 0.4976 h -6.219994 v -0.4976 q 1.4928,-1.4928 1.4928,-6.5932 v -29.35837 q 0,-2.0526 -0.435398,-3.6698 -0.435398,-1.61719 -1.181798,-2.30139 v -0.4976 H 66.068527 L 79.752512,152.11689 92.9389,122.63412 h 11.88019 v 0.4976 q -0.7464,0.6842 -1.18179,2.30139 -0.4354,1.6172 -0.4354,3.6698 v 29.35837 q 0,5.1004 1.4928,6.5932 v 0.4976 H 92.690107 v -0.4976 q 1.492801,-1.4928 1.492801,-6.5932 V 127.98331 L 77.015715,166.17408 H 76.45592 Z m 65.286559,5.03822 c -3.40026,0 -7.44324,0.9328 -12.12897,2.7988 v 7.71322 h 0.49764 c 1.1196,-2.07333 2.67443,-3.93944 4.66483,-5.59811 2.03186,-1.65866 4.16765,-2.48822 6.40685,-2.48822 1.7416,0 3.10997,0.47719 4.10517,1.43092 1.03667,0.91227 1.55495,2.38389 1.55495,4.41575 0,1.6172 -0.62204,3.1104 -1.86604,4.4788 -1.20254,1.36839 -2.90273,2.48765 -5.10046,3.35845 -3.02707,1.20253 -5.34931,2.2396 -6.9665,3.1104 -1.6172,0.82934 -2.88182,1.80374 -3.79409,2.92334 -0.91226,1.1196 -1.36839,2.48798 -1.36839,4.10518 0,2.2392 0.8085,3.98048 2.42569,5.22448 1.6172,1.20254 3.58708,1.80403 5.9092,1.80403 2.32214,0 4.35416,-0.45613 6.09576,-1.36839 1.74159,-0.91227 3.15106,-2.15634 4.2292,-3.73208 0.16586,1.65867 0.64305,2.92329 1.43092,3.79409 0.82933,0.8708 2.21825,1.30638 4.16718,1.30638 1.16106,0 2.44674,-0.22806 3.85662,-0.6842 1.40986,-0.4976 2.50857,-1.01588 3.29644,-1.55494 v -0.49765 c -1.4928,0 -2.57096,-0.24912 -3.23443,-0.74672 -0.622,-0.53907 -0.93276,-1.40971 -0.93276,-2.61224 v -16.66927 c 0,-3.40027 -0.97492,-5.99218 -2.92385,-7.77524 -1.90747,-1.82453 -5.34896,-2.73678 -10.32496,-2.73678 z m 4.60282,15.17685 v 11.07168 c -0.53906,0.58053 -1.26486,1.0572 -2.17712,1.4304 -0.91228,0.3732 -1.92829,0.55966 -3.04788,0.55966 -1.6172,0 -2.94397,-0.37292 -3.98064,-1.11932 -1.03666,-0.7464 -1.55494,-1.82456 -1.55494,-3.23442 0,-1.28547 0.45613,-2.34309 1.36839,-3.17242 0.95374,-0.8708 2.34266,-1.67929 4.16719,-2.42569 2.69533,-1.1196 4.43714,-2.15616 5.225,-3.10989 z m 17.76587,-3.85648 q 0,-2.6746 -0.622,-4.4784 -0.5598,-1.866 -1.555,-2.7368 v -0.4354 l 10.63619,-3.85639 h 0.2488 v 6.15779 q 2.1148,-2.73679 5.2248,-4.22959 3.11,-1.4928 6.53099,-1.4928 9.33,0 9.33,9.57879 v 15.67438 q 0,5.1004 1.49279,6.5932 v 0.4976 h -11.69359 v -0.4976 q 1.4928,-1.4928 1.4928,-6.5932 V 144.2175 q 0,-3.11 -1.244,-4.4784 -1.1818,-1.4306 -4.2296,-1.4306 -1.9282,0 -3.85639,0.622 -1.866,0.622 -3.0478,1.8038 v 17.72698 q 0,5.1004 1.4928,6.5932 v 0.4976 h -11.69359 v -0.4976 q 1.4928,-1.4928 1.4928,-6.5932 z m 49.54992,-11.32037 c -3.40026,0 -7.44324,0.9328 -12.12897,2.7988 v 7.71322 h 0.49764 c 1.11961,-2.07333 2.67444,-3.93944 4.66483,-5.59811 2.03186,-1.65866 4.16765,-2.48822 6.40685,-2.48822 1.7416,0 3.10997,0.47719 4.10517,1.43092 1.03666,0.91227 1.55495,2.38389 1.55495,4.41575 0,1.6172 -0.62204,3.1104 -1.86604,4.4788 -1.20253,1.36839 -2.90274,2.48765 -5.10046,3.35845 -3.02707,1.20253 -5.34931,2.2396 -6.9665,3.1104 -1.61721,0.82934 -2.88183,1.80374 -3.79409,2.92334 -0.91227,1.1196 -1.36839,2.48798 -1.36839,4.10518 0,2.2392 0.80849,3.98048 2.42569,5.22448 1.6172,1.20254 3.58707,1.80403 5.9092,1.80403 2.32214,0 4.35415,-0.45613 6.09575,-1.36839 1.7416,-0.91227 3.15107,-2.15634 4.2292,-3.73208 0.16587,1.65867 0.64306,2.92329 1.43092,3.79409 0.82933,0.8708 2.21825,1.30638 4.16719,1.30638 1.16106,0 2.44675,-0.22806 3.85661,-0.6842 1.40987,-0.4976 2.50858,-1.01588 3.29644,-1.55494 v -0.49765 c -1.4928,0 -2.57096,-0.24912 -3.23442,-0.74672 -0.622,-0.53907 -0.93276,-1.40971 -0.93276,-2.61224 v -16.66927 c 0,-3.40027 -0.9744,-5.99218 -2.92334,-7.77524 -1.90746,-1.82453 -5.34947,-2.73678 -10.32547,-2.73678 z m 4.60282,15.17685 v 11.07168 c -0.53906,0.58053 -1.26487,1.0572 -2.17713,1.4304 -0.91227,0.3732 -1.92828,0.55966 -3.04787,0.55966 -1.6172,0 -2.94397,-0.37292 -3.98064,-1.11932 -1.03666,-0.7464 -1.55494,-1.82456 -1.55494,-3.23442 0,-1.28547 0.45612,-2.34309 1.36839,-3.17242 0.95373,-0.8708 2.34265,-1.67929 4.16719,-2.42569 2.69532,-1.1196 4.43714,-2.15616 5.225,-3.10989 z m 63.45969,-15.23886 c -2.77826,0 -5.34911,0.78743 -7.7127,2.36316 -2.3636,1.53426 -4.25078,3.62844 -5.66064,6.2823 -1.36841,2.6124 -2.05259,5.47347 -2.05259,8.58346 0,3.06853 0.62204,5.8469 1.86604,8.33489 1.244,2.488 3.02741,4.45787 5.34954,5.9092 2.32214,1.45134 5.03783,2.17713 8.14783,2.17713 6.92493,0 11.88016,-4.08459 14.86576,-12.25352 l -0.55966,-0.24908 c -1.40987,1.7416 -2.94416,3.10999 -4.60282,4.10518 -1.6172,0.9952 -3.46225,1.49293 -5.53558,1.49293 -1.9904,0 -3.85651,-0.45612 -5.59811,-1.36839 -1.7416,-0.95373 -3.15159,-2.34265 -4.22971,-4.16719 -1.07814,-1.866 -1.61696,-4.12608 -1.61696,-6.77995 v -0.49764 h 21.95628 c -0.1244,-2.44653 -0.76698,-4.72716 -1.92804,-6.84196 -1.16107,-2.1148 -2.81967,-3.815 -4.97593,-5.10046 -2.15627,-1.32694 -4.72711,-1.99006 -7.71271,-1.99006 z m 0,2.55023 c 1.70014,0 3.06851,0.76688 4.10518,2.30115 1.03667,1.4928 1.63764,3.66967 1.80351,6.53087 h -13.06174 c 0.33174,-3.02707 1.14023,-5.24554 2.42569,-6.65541 1.32694,-1.45133 2.90284,-2.17661 4.72736,-2.17661 z m 19.9427,8.83215 q 0,-2.6746 -0.62199,-4.4784 -0.5598,-1.866 -1.555,-2.7368 v -0.4354 l 10.63619,-3.85639 h 0.2488 v 6.84199 q 4.16739,-6.34439 9.39219,-6.34439 1.4306,0 2.4258,0.1866 v 7.15299 h -0.4976 q -2.5502,-1.1818 -5.2248,-1.1818 -1.67939,0 -3.35879,0.622 -1.6172,0.5598 -2.7368,1.4928 v 16.91838 q 0,5.1004 1.4928,6.5932 v 0.4976 h -11.6936 v -0.4976 q 1.4928,-1.4928 1.4928,-6.5932 z m -374.566436,-0.2062 v -22.10058 l 21.77237,22.10058 v 22.10058 z m 37.297017,-22.10058 q 3.092308,0 6.247724,1.21713 v 20.88345 q -4.796233,-4.22794 -10.475981,-4.22794 -3.0292,0 -6.279278,1.2812 -3.250079,1.28119 -5.017112,2.94674 v -0.3203 q 0,-7.11062 2.051021,-12.01118 2.05102,-4.90057 5.585086,-7.33483 3.534066,-2.43427 7.88854,-2.43427 z" />
  </g>
</svg>
