<svg xmlns="http://www.w3.org/2000/svg" viewBox="0 0 400 50">
  <path d="m 206.6,12.3 q 0,-2.802 -0.7,-4.694 -0.6,-1.956 -1.6,-2.869 V 4.28 l 11.1,-4.0435 h 0.3 V 33.3 l 3.7,-2.67 q 6.9,-5.09 6.9,-11.54 0,-1.57 -0.4,-3.14 V 15.69 H 236 q -0.2,3.13 -2.6,6.07 -2.3,2.93 -8,7.04 l 7.8,11.22 q 1.6,2.41 3.9,4.89 2.3,2.42 3.7,3.52 v 0.53 h -14.6 v -0.53 q 0.3,-0.45 0.3,-1.04 0,-2.15 -2.5,-5.74 l -5.4,-8.09 -2.9,2.03 v 5.93 q 0,5.35 1.6,6.91 v 0.53 H 205 v -0.53 q 1.6,-1.56 1.6,-6.91 z" />
  <path d="m 256.2,50 q -4.9,0 -8.6,-2.28 -3.6,-2.29 -5.6,-6.2 -1.9,-3.91 -1.9,-8.74 0,-4.89 2.1,-9 2.2,-4.17 6,-6.59 3.7,-2.47 8,-2.47 4.7,0 8.1,2.08 3.4,2.02 5.2,5.35 1.9,3.33 2.1,7.17 h -23.1 v 0.53 q 0,4.17 1.7,7.11 1.7,2.87 4.5,4.37 2.7,1.43 5.8,1.43 3.3,0 5.8,-1.56 2.7,-1.57 4.9,-4.31 l 0.6,0.26 Q 267.1,50 256.2,50 Z m 6.2,-23.35 q -0.2,-4.5 -1.9,-6.85 -1.6,-2.41 -4.3,-2.41 -2.8,0 -4.9,2.28 -2,2.22 -2.6,6.98 z" />
  <path d="m 292.4,50 q -5,0 -9.2,-2.28 -4.1,-2.35 -6.6,-6.33 -2.4,-4.04 -2.4,-8.87 0,-4.89 2.4,-8.93 2.5,-4.11 6.6,-6.46 4.3,-2.41 9.2,-2.41 5.1,0 9.2,2.34 4.3,2.35 6.7,6.4 2.5,3.97 2.5,8.8 0,4.83 -2.5,8.94 -2.5,4.04 -6.7,6.45 -4.3,2.35 -9.2,2.35 z m 0.1,-2.61 q 3.8,0 6.2,-3.98 2.3,-4.04 2.3,-10.89 0,-4.43 -1.1,-7.89 -1.1,-3.46 -3.2,-5.35 -1.9,-1.96 -4.4,-1.96 -3.8,0 -6.1,4.05 -2.3,3.98 -2.3,10.82 0,4.5 1.1,7.96 1.1,3.46 3.1,5.35 1.9,1.89 4.4,1.89 z m 21.6,-22.11 q -2.4,-6.59 -4.1,-9.06 v -0.53 h 13.3 v 0.53 q -0.9,1.56 -0.9,3.65 0,2.15 1.1,5.09 l 6.1,16.82 5.9,-16.3 q 0.8,-2.29 0.8,-4.57 0,-1.5 -0.3,-2.8 -0.3,-1.31 -0.7,-1.89 v -0.53 h 8.1 v 0.53 q -0.8,1.04 -2.2,3.71 -1.4,2.68 -2.3,4.96 l -9.1,24.07 h -6.7 z M 358.4,50 q -4.8,0 -8.5,-2.28 -3.6,-2.29 -5.6,-6.2 -2,-3.91 -2,-8.74 0,-4.89 2.2,-9 2.2,-4.17 5.9,-6.59 3.7,-2.47 8.1,-2.47 4.7,0 8.1,2.08 3.4,2.02 5.2,5.35 1.8,3.33 2,7.17 h -23 v 0.53 q 0,4.17 1.7,7.11 1.7,2.87 4.4,4.37 2.8,1.43 5.9,1.43 3.3,0 5.8,-1.56 2.6,-1.57 4.8,-4.31 l 0.6,0.26 Q 369.3,50 358.4,50 Z m 6.3,-23.35 q -0.3,-4.5 -1.9,-6.85 -1.6,-2.41 -4.3,-2.41 -2.9,0 -4.9,2.28 -2.1,2.22 -2.6,6.98 z m 13.2,0 q 0,-2.8 -0.6,-4.69 -0.6,-1.96 -1.7,-2.87 v -0.46 l 11.2,-4.04 h 0.3 v 7.17 q 4.3,-6.65 9.8,-6.65 1.5,0 2.5,0.19 v 7.5 h -0.5 q -2.7,-1.24 -5.5,-1.24 -1.7,0 -3.5,0.66 -1.7,0.58 -2.8,1.56 v 17.74 q 0,5.35 1.5,6.91 v 0.53 h -12.2 v -0.53 q 1.5,-1.56 1.5,-6.91 z" />
  <path d="M 0,27.5 V 5 L 22.5,27.5 V 50 Z m 22.5,-0.33 q 0,-7.24 2.09,-12.19 2.15,-5.023 5.8,-7.502 Q 34.04,5 38.54,5 41.74,5 45,6.239 V 27.5 q -4.96,-4.3 -10.83,-4.3 -3.13,0 -6.52,1.3 -3.32,1.3 -5.15,3 z" />
  <path d="m 187,15.45 c -2.1,0 -4.2,0.27 -6.4,0.83 -2.3,0.51 -4.3,1.13 -6.2,1.85 v 8.44 h 0.5 c 1.2,-2.13 2.8,-3.98 4.7,-5.56 1.9,-1.62 4.2,-2.43 6.7,-2.43 1.9,0 3.3,0.43 4.3,1.28 1,0.85 1.5,2.17 1.5,3.96 0,1.84 -0.6,3.37 -1.9,4.61 -1.2,1.23 -3,2.3 -5.4,3.19 -3.1,1.16 -5.5,2.18 -7.2,3.07 -1.6,0.86 -2.9,1.9 -3.9,3.14 -0.9,1.23 -1.3,2.77 -1.3,4.6 0,2.3 0.8,4.09 2.5,5.37 1.6,1.28 3.7,1.92 6.2,1.92 2.3,0 4.4,-0.47 6.2,-1.41 1.8,-0.93 3.3,-2.17 4.4,-3.71 v 4.42 H 202 v -0.51 c -1,-0.98 -1.5,-3.25 -1.5,-6.78 V 26.19 c 0,-3.41 -1,-6.05 -3.1,-7.93 -2,-1.87 -5.5,-2.81 -10.4,-2.81 z m 4.7,15.79 V 42.3 c -0.6,0.64 -1.4,1.18 -2.4,1.6 -0.9,0.39 -2,0.58 -3.1,0.58 -1.8,0 -3.2,-0.39 -4.1,-1.15 -0.9,-0.81 -1.4,-1.92 -1.4,-3.33 0,-1.28 0.4,-2.32 1.3,-3.13 1,-0.85 2.4,-1.71 4.3,-2.56 1.6,-0.73 2.8,-1.3 3.6,-1.73 0.8,-0.46 1.4,-0.91 1.8,-1.34 z" />
  <path d="m 99.29,15.45 c -2.94,0 -5.63,0.81 -8.05,2.43 -2.39,1.57 -4.29,3.73 -5.7,6.46 -1.4,2.68 -2.11,5.64 -2.11,8.88 0,3.24 0.62,6.14 1.86,8.7 1.24,2.51 3.02,4.5 5.37,5.95 2.34,1.44 5.12,2.17 8.31,2.17 3.73,0 6.93,-1.07 9.63,-3.2 2.6,-2.13 4.6,-5.35 5.8,-9.65 h -1.2 c -0.9,1.7 -2.2,3.09 -3.9,4.15 -1.7,1.07 -3.7,1.6 -6,1.6 -3.39,0 -6.18,-1.06 -8.36,-3.19 -2.13,-2.14 -3.19,-5.31 -3.19,-9.53 h 22.35 c 0,-2.73 -0.6,-5.2 -1.8,-7.42 -1.1,-2.26 -2.8,-4.05 -5,-5.37 -2.2,-1.32 -4.9,-1.98 -8.01,-1.98 z m -0.19,3.07 c 1.8,0 3.2,0.74 4.3,2.24 1.1,1.49 1.7,3.6 1.8,6.33 H 91.94 c 0.38,-2.9 1.21,-5.06 2.49,-6.46 1.28,-1.41 2.84,-2.11 4.67,-2.11 z" />
  <path d="M 59.97,48.51 Q 61.5,46.97 61.5,41.73 V 27.15 q 0,-2.75 -0.64,-4.61 -0.57,-1.91 -1.66,-2.81 v -0.45 l 11,-3.96 h 0.25 v 6.97 q 4.16,-6.59 10.68,-6.59 2.43,0 4.29,0.64 v 0.26 q -1.6,1.34 -3.14,3.58 -1.47,2.24 -2.11,4.15 h -0.25 q -1.79,-1.47 -5.12,-1.47 -1.28,0 -2.49,0.45 -1.15,0.39 -1.86,1.02 v 17.4 q 0,3.07 0.52,4.54 0.57,1.47 1.47,2.24 v 0.51 H 59.97 Z" />
  <path d="m 117.7,48.51 q 1.5,-1.54 1.5,-7.74 V 12.19 q 0,-2.11 -0.4,-3.777 -0.5,-1.726 -1.2,-2.366 V 5.536 h 12.5 L 143.4,35.14 156.5,5.536 h 12.1 v 0.511 q -0.8,0.64 -1.2,2.366 -0.5,1.667 -0.5,3.777 v 29.54 q 0,5.24 1.6,6.78 v 0.51 h -12.4 v -0.51 q 1.6,-1.54 1.6,-6.78 v -29.8 l -16.4,37.09 h -1.9 L 123.1,12.06 v 28.71 q 0,3.52 0.5,5.18 0.5,1.66 1.4,2.56 v 0.51 h -7.3 z" />
</svg>
