<svg width="150" height="25" viewBox="0 0 131 16" xmlns="http://www.w3.org/2000/svg">
<path d="M0 0.47733L7.76128 8.23862V15.9999L0 8.23862V0.47733ZM13.2932 0.47733C10.2679 0.47733 7.76128 2.96531 7.76128 8.11862V8.23862C8.55728 7.52262 10.2892 6.74663 11.7812 6.74663C13.0146 6.74663 14.3092 7.18396 15.5226 8.23862V0.895994C14.7666 0.617329 14.0106 0.478664 13.2932 0.478664V0.47733ZM130.006 11.7546C129.531 12.7146 128.227 13.8652 126.448 13.6572C124.5 13.4292 122.93 12.4479 122.93 9.45061H130.303C130.303 6.80929 128.631 4.57197 125.424 4.57197C122.218 4.57197 120.182 7.33062 120.182 10.4492C120.182 13.5679 121.846 16.0026 125.318 16.0026C128.239 16.0026 129.638 14.2572 130.426 11.7572H130.008L130.006 11.7546ZM127.391 8.41195H122.996C123.279 6.43063 124.202 5.58129 125.368 5.58129C126.535 5.58129 127.311 6.57863 127.391 8.41195ZM118.468 0H118.387L114.748 1.30799V1.45599C115.194 1.83332 115.503 2.65598 115.503 3.90931V13.2639C115.503 14.4506 115.314 15.1919 114.991 15.5012V15.6626H118.967V15.5012C118.63 15.1906 118.455 14.4492 118.455 13.2639V0H118.468ZM109.344 4.69064C107.78 4.69064 106.447 5.43197 105.611 6.55063V0H105.53L101.891 1.30799V1.45599C102.336 1.83332 102.646 2.65598 102.646 3.90931V15.8652H102.807L104.411 14.8132C105.234 15.5146 106.567 15.9999 107.956 15.9999C112.027 15.9999 113.847 12.7772 113.847 10.0546C113.847 6.89996 112.203 4.69064 109.346 4.69064H109.344ZM108.104 14.9879C106.662 14.9879 105.611 14.0306 105.611 12.0759V7.34528C106.083 6.79329 106.851 6.52263 107.674 6.52263C109.359 6.52263 110.72 7.81595 110.72 10.7279C110.72 13.6399 109.736 14.9866 108.106 14.9866L108.104 14.9879ZM100.34 8.11462C100.34 6.05196 99.3701 4.5693 95.8661 4.5693C94.3861 4.5693 92.6714 5.09464 91.7287 5.45864V8.24928H91.8901C92.4967 7.17062 93.7634 5.60796 95.6501 5.60796C96.9741 5.60796 97.5781 6.13329 97.5781 7.33328C97.5781 8.53328 96.6074 9.35461 95.1514 9.90794C92.5101 10.9052 91.0541 11.5799 91.0541 13.4799C91.0541 15.3799 92.8634 15.8932 93.9247 15.8932C95.4607 15.8932 96.7554 15.1519 97.4287 14.2079V15.6639H100.852V15.4892C100.515 15.1786 100.34 14.4372 100.34 13.2519V8.11462ZM97.4154 13.4519C97.0381 13.8426 96.3781 14.1532 95.6087 14.1532C94.4087 14.1532 93.7887 13.5866 93.7887 12.6706C93.7887 11.7546 94.4901 11.2959 95.6221 10.7972C96.6327 10.3519 97.1581 10.0826 97.4141 9.78661V13.4532L97.4154 13.4519ZM86.1208 9.31327C88.4661 7.66928 89.6661 6.21329 89.9887 4.89197H86.4982V5.0533C86.7675 6.53596 86.4302 8.00528 84.1128 9.63594L83.0208 10.3906V0H82.9395L79.3142 1.30799V1.45599C79.7595 1.83332 80.0688 2.65598 80.0688 3.90931V13.2639C80.0688 14.4506 79.8795 15.1919 79.5568 15.5012V15.6626H83.5328V15.5012C83.1955 15.1906 83.0208 14.4492 83.0208 13.2639V11.3359L83.8835 10.7839L85.5555 13.3852C86.2702 14.5039 86.4448 15.2186 86.1622 15.5012V15.6626H90.8261V15.5012C90.3541 15.3932 89.4781 14.1532 88.6021 12.8999L86.1222 9.31461L86.1208 9.31327ZM74.6902 4.54264H74.6088L70.9836 5.85063V5.99863C71.4288 6.37596 71.7382 7.19862 71.7382 8.45195V13.2639C71.7382 14.4506 71.5489 15.1919 71.2263 15.5012V15.6626H75.4048V15.5012C75.0408 15.2319 74.6902 14.7199 74.6902 13.2639V7.64395C75.1355 7.22662 75.8088 6.98396 76.6715 6.98396C77.5342 6.98396 78.0595 7.10529 78.5715 7.36128H78.7328V4.7333C78.5435 4.6933 78.2608 4.6653 77.9782 4.6653C76.5488 4.6653 75.3768 5.67596 74.6888 6.90263V4.54397L74.6902 4.54264ZM69.1916 8.11462C69.1916 6.05196 68.2209 4.5693 64.7169 4.5693C63.2369 4.5693 61.5223 5.09464 60.5796 5.45864V8.24928H60.7409C61.3476 7.17062 62.6143 5.60796 64.5009 5.60796C65.8249 5.60796 66.4289 6.13329 66.4289 7.33328C66.4289 8.53328 65.4583 9.35461 64.0023 9.90794C61.3609 10.9052 59.9049 11.5799 59.9049 13.4799C59.9049 15.3799 61.7143 15.8932 62.7756 15.8932C64.3116 15.8932 65.6063 15.1519 66.2796 14.2079V15.6639H69.7036V15.4892C69.3663 15.1786 69.1916 14.4372 69.1916 13.2519V8.11462ZM66.2663 13.4519C65.8889 13.8426 65.2289 14.1532 64.4596 14.1532C63.2596 14.1532 62.6396 13.5866 62.6396 12.6706C62.6396 11.7546 63.3409 11.2959 64.4729 10.7972C65.4836 10.3519 66.0089 10.0826 66.2649 9.78661V13.4532L66.2663 13.4519ZM50.3344 11.0666L45.9544 1.29466H41.8024V1.46932C42.1397 1.76532 42.3544 2.58798 42.3544 3.49065V13.2546C42.3544 14.2626 42.2024 15.1372 41.8424 15.4999V15.6612H44.2557V15.4999C43.8584 15.1519 43.6224 14.2586 43.6224 13.2546V3.45065L49.0277 15.6626H49.6344L55.0397 3.41065V13.2506C55.0397 14.4372 54.8504 15.1919 54.5277 15.5012V15.6626H58.5983V15.5012C58.2743 15.1906 58.0863 14.4359 58.0863 13.2506V3.49065C58.0863 2.58798 58.3023 1.75199 58.6383 1.46932V1.29466H54.649L50.3357 11.0666H50.3344ZM40.3477 11.7546C39.873 12.7146 38.5691 13.8652 36.7905 13.6572C34.8425 13.4292 33.2718 12.4479 33.2718 9.45061H40.645C40.645 6.80929 38.9731 4.57197 35.7665 4.57197C32.5598 4.57197 30.5238 7.33062 30.5238 10.4492C30.5238 13.5679 32.1878 16.0026 35.6598 16.0026C38.5811 16.0026 39.9798 14.2572 40.7677 11.7572H40.3504L40.3477 11.7546ZM37.7318 8.41195H33.3371C33.6198 6.43063 34.5425 5.58129 35.7091 5.58129C36.8758 5.58129 37.6505 6.57863 37.7305 8.41195H37.7318ZM31.1811 4.87864C30.7638 4.73064 30.2505 4.66264 29.7665 4.66264C28.0545 4.66264 26.9625 5.69996 26.2345 6.83329V4.5413H26.1531L22.5279 5.84929V5.99729C22.9732 6.37463 23.2826 7.19729 23.2826 8.45062V13.2626C23.2826 14.4492 23.0932 15.1906 22.7706 15.4999V15.6612H26.8945V15.4999C26.5705 15.2306 26.2345 14.7852 26.2345 13.2626V7.52128C26.5305 7.26528 27.0838 7.03596 27.6771 7.03596C28.2705 7.03596 29.0118 7.22528 29.3625 7.52128H29.4438C29.7131 6.65863 30.4811 5.5533 31.1825 4.95997V4.87864H31.1811Z" fill="black" stroke="none" />
</svg>
